<svg width="321" height="321" viewBox="0 0 25 25" fill="none" xmlns="http://www.w3.org/2000/svg">
<path d="M5.97663 4.44979L5.54456 4.01595C5.11248 3.5821 4.41452 3.59322 3.99353 4.01595L3.98245 4.02707C3.55037 4.46092 3.55037 5.16175 3.98245 5.58448L4.41452 6.01832C4.84659 6.45217 5.53348 6.45217 5.96555 6.01832L5.97663 6.0072C6.4087 5.58448 6.4087 4.87252 5.97663 4.44979V4.44979ZM2.60867 11.5249H1.47864C0.869303 11.5249 0.381836 12.0143 0.381836 12.6262V12.6373C0.381836 13.2491 0.869303 13.7386 1.47864 13.7386H2.5976C3.21801 13.7497 3.70548 13.2603 3.70548 12.6484V12.6373C3.70548 12.0143 3.21801 11.5249 2.60867 11.5249ZM12.5796 0.45616H12.5685C11.9481 0.45616 11.4606 0.94563 11.4606 1.55747V2.6254C11.4606 3.23724 11.9481 3.72671 12.5574 3.72671H12.5685C13.1889 3.73784 13.6764 3.24837 13.6764 2.63653V1.55747C13.6764 0.94563 13.1889 0.45616 12.5796 0.45616V0.45616ZM21.1546 4.02707C20.7225 3.59322 20.0246 3.59322 19.5925 4.01595L19.1604 4.44979C18.7283 4.88364 18.7283 5.58448 19.1604 6.0072L19.1715 6.01832C19.6036 6.45217 20.3015 6.45217 20.7225 6.01832L21.1546 5.58448C21.5867 5.15063 21.5867 4.46092 21.1546 4.02707V4.02707ZM19.1493 20.8248L19.5814 21.2587C20.0135 21.6925 20.7114 21.6925 21.1435 21.2587C21.5756 20.8248 21.5756 20.124 21.1435 19.6901L20.7114 19.2563C20.2794 18.8224 19.5814 18.8336 19.1604 19.2563C18.7173 19.7013 18.7173 20.391 19.1493 20.8248ZM21.4316 12.6262V12.6373C21.4316 13.2491 21.919 13.7386 22.5284 13.7386H23.6473C24.2567 13.7386 24.7441 13.2491 24.7441 12.6373V12.6262C24.7441 12.0143 24.2567 11.5249 23.6473 11.5249H22.5284C21.919 11.5249 21.4316 12.0143 21.4316 12.6262ZM12.5685 5.9627C8.90143 5.9627 5.92124 8.95515 5.92124 12.6373C5.92124 16.3195 8.90143 19.3119 12.5685 19.3119C16.2356 19.3119 19.2158 16.3195 19.2158 12.6373C19.2158 8.95515 16.2356 5.9627 12.5685 5.9627ZM12.5574 24.8184H12.5685C13.1779 24.8184 13.6653 24.329 13.6653 23.7171V22.6492C13.6653 22.0374 13.1779 21.5479 12.5685 21.5479H12.5574C11.9481 21.5479 11.4606 22.0374 11.4606 22.6492V23.7171C11.4606 24.329 11.9481 24.8184 12.5574 24.8184ZM3.98245 21.2475C4.41452 21.6814 5.11248 21.6814 5.54456 21.2475L5.97663 20.8137C6.4087 20.3798 6.39763 19.679 5.97663 19.2563L5.96555 19.2452C5.53348 18.8113 4.83551 18.8113 4.40344 19.2452L3.97137 19.679C3.55037 20.124 3.55037 20.8137 3.98245 21.2475Z" fill="white" fill-opacity="0.8"/>
</svg>
