<svg width="44" height="44" viewBox="0 0 44 44" fill="none" xmlns="http://www.w3.org/2000/svg">
<path d="M15.2291 22C15.2291 18.2606 18.2605 15.2292 21.9999 15.2292C25.7393 15.2292 28.7707 18.2606 28.7707 22C28.7707 25.7394 25.7393 28.7708 21.9999 28.7708C18.2605 28.7708 15.2291 25.7394 15.2291 22Z" fill="white"/>
<path fill-rule="evenodd" clip-rule="evenodd" d="M20.8764 0.830235C21.4906 0.194731 22.5092 0.194731 23.1234 0.830235L28.4824 6.375H36.0624C36.9254 6.375 37.6249 7.07455 37.6249 7.9375V15.5175L43.1697 20.8765C43.8052 21.4907 43.8052 22.5093 43.1697 23.1235L37.6249 28.4825V36.0625C37.6249 36.9254 36.9254 37.625 36.0624 37.625H28.4824L23.1234 43.1698C22.5092 43.8053 21.4906 43.8053 20.8764 43.1698L15.5174 37.625H7.93741C7.07446 37.625 6.37491 36.9254 6.37491 36.0625V28.4825L0.830143 23.1235C0.194641 22.5093 0.19464 21.4907 0.830141 20.8765L6.37491 15.5175V7.9375C6.37491 7.07455 7.07446 6.375 7.93741 6.375H15.5174L20.8764 0.830235ZM21.9999 12.1042C16.5346 12.1042 12.1041 16.5347 12.1041 22C12.1041 27.4653 16.5346 31.8958 21.9999 31.8958C27.4652 31.8958 31.8957 27.4653 31.8957 22C31.8957 16.5347 27.4652 12.1042 21.9999 12.1042Z" fill="white"/>
</svg>
