<svg width="321" height="321" viewBox="0 0 22 20" fill="none" xmlns="http://www.w3.org/2000/svg">
<path d="M3.88581 14.4628H17.322C19.6052 14.4628 21.4562 12.6118 21.4562 10.3286C21.4562 8.38945 20.1212 6.76216 18.3201 6.31565C18.3435 6.10619 18.3555 5.89328 18.3555 5.67757C18.3555 2.53809 15.8105 -0.00695753 12.671 -0.00695753C10.067 -0.00695753 7.87199 1.74391 7.19893 4.13261C7.12856 4.12905 7.05772 4.12725 6.98646 4.12725C4.70321 4.12725 2.85226 5.97819 2.85226 8.26145C2.85226 8.32013 2.85348 8.37852 2.8559 8.4366C1.64971 8.86123 0.785156 10.0107 0.785156 11.3621C0.785156 13.0746 2.17337 14.4628 3.88581 14.4628Z" fill="white" fill-opacity="0.6"/>
<path d="M6.38141 15.4963C6.1188 15.4963 5.87873 15.6447 5.76128 15.8796L4.38751 18.6271C4.15701 19.0881 4.49223 19.6305 5.00764 19.6305C5.27025 19.6305 5.51032 19.4821 5.62777 19.2473L7.00154 16.4997C7.23204 16.0387 6.89682 15.4963 6.38141 15.4963Z" fill="white" fill-opacity="0.6"/>
<path d="M9.48207 15.4963C9.99747 15.4963 10.3327 16.0387 10.1022 16.4997L8.72842 19.2473C8.61098 19.4821 8.3709 19.6305 8.10829 19.6305C7.59288 19.6305 7.25766 19.0881 7.48816 18.6271L8.86194 15.8796C8.97938 15.6447 9.21945 15.4963 9.48207 15.4963Z" fill="white" fill-opacity="0.6"/>
<path d="M15.6834 15.4963C16.1988 15.4963 16.534 16.0387 16.3035 16.4997L14.9297 19.2473C14.8123 19.4821 14.5722 19.6305 14.3096 19.6305C13.7942 19.6305 13.459 19.0881 13.6895 18.6271L15.0632 15.8796C15.1807 15.6447 15.4208 15.4963 15.6834 15.4963Z" fill="white" fill-opacity="0.6"/>
<path d="M12.5827 15.4963C13.0981 15.4963 13.4333 16.0387 13.2029 16.4997L11.8291 19.2473C11.7116 19.4821 11.4716 19.6305 11.2089 19.6305C10.6935 19.6305 10.3583 19.0881 10.5888 18.6271L11.9626 15.8796C12.08 15.6447 12.3201 15.4963 12.5827 15.4963Z" fill="white" fill-opacity="0.6"/>
</svg>
